<?xml version="1.0" encoding="UTF-8"?>
<svg width="24px" height="24px" viewBox="0 0 24 24" version="1.1" xmlns="http://www.w3.org/2000/svg">
    <path d="M12,0 C5.373,0 0,5.373 0,12 C0,18.627 5.373,24 12,24 C18.627,24 24,18.627 24,12 C24,5.373 18.627,0 12,0 Z M17.855,8.252 L15.87,17.477 C15.721,18.12 15.385,18.255 14.841,17.95 L11.855,15.732 L10.419,17.109 C10.255,17.273 10.116,17.413 9.797,17.413 L10.017,14.367 L15.537,9.34 C15.784,9.119 15.486,8.995 15.164,9.216 L8.22,13.592 L5.265,12.625 C4.633,12.429 4.622,12.047 5.401,11.741 L17.076,7.156 C17.609,6.96 18.077,7.246 17.855,8.252 Z" fill="#E6F1FF"></path>
</svg>
